# xmcd CD database file
#
# Track frame offsets:
#	150
#	21637
#	39117
#	54552
#	73750
#	91872
#	114185
#	129507
#	145300
#	161025
#	183737
#	205052
#
# Disc length: 2935 seconds
#
# Revision: 0
# Processed by: cddbd v1.5.1PL0 Copyright (c) Steve Scherf et al.
# Submitted via: CDex 1.51
#
DISCID=a80b750c
DTITLE=Various Artist - Japanese Heavy Metal Tribute - 魂 II
DYEAR=2002
DGENRE=Heavy Metal
TTITLE0=Youth Quake - Spider In The Brain(DEAD End)
TTITLE1=Masaki Project - Shot In The Dark(VOW Wow)
TTITLE2=MANIPULATED SLAVES - Action!100,000Volt(ACTION!)
TTITLE3=Ritual Carnage - The Eyes(GASTUNK)
TTITLE4=Galneryus - Soldier Of Fortune(LOUDNESS)
TTITLE5=Funk Rocket - Dreamer(LAZY)
TTITLE6=小野正利 - Blizzard(BLIZARD)
TTITLE7=Cloud Nine - I'm So Excited(REACTION)
TTITLE8=Tabasco - I Just Can't Take Anymore(44 MAGNUM)
TTITLE9=SLEAZY Tornado - Deathwish(FLATBACKER)
TTITLE10=Aresz - Ares' Lament(LOUDNESS)
TTITLE11=GARGOYLE - No Standing Still(44 MAGNUM)
EXTD=YEAR: 2002
EXTT0=
EXTT1=
EXTT2=
EXTT3=
EXTT4=
EXTT5=
EXTT6=
EXTT7=
EXTT8=
EXTT9=
EXTT10=
EXTT11=
PLAYORDER=
